<svg width="100%" viewBox="0 0 190 60" role="img" xmlns="http://www.w3.org/2000/svg">
  <title>Not Ontario logo</title>
  <desc>A parody wordmark reading "Not Ontario" with a morphed trillium badge on a black background</desc>

  <rect width="190" height="60" fill="#141516" rx="3"/>

  <g transform="translate(5, 5)">
    <circle fill="#fff" cx="25" cy="25" r="25"/>
    <g transform="translate(25,25) scale(0.5)">
      <path fill="#141516" d="M0,-36 C6,-26 18,-20 14,-9 C10,2 2,6 0,13 C-2,6 -10,2 -14,-9 C-18,-20 -6,-26 0,-36Z"/>
      <path fill="#141516" d="M0,-36 C6,-26 18,-20 14,-9 C10,2 2,6 0,13 C-2,6 -10,2 -14,-9 C-18,-20 -6,-26 0,-36Z" transform="rotate(120)"/>
      <path fill="#141516" d="M0,-36 C6,-26 18,-20 14,-9 C10,2 2,6 0,13 C-2,6 -10,2 -14,-9 C-18,-20 -6,-26 0,-36Z" transform="rotate(240)"/>
      <line x1="0" y1="13" x2="0" y2="34" stroke="#141516" stroke-width="3" stroke-linecap="round"/>
    </g>
  </g>

  <text x="62" y="35" font-family="'Helvetica Neue', Helvetica, sans-serif" font-weight="700" font-size="20" fill="#fff" letter-spacing="0.5">Not Ontario</text>
</svg>