<svg width="100%" viewBox="0 0 100 100" role="img" xmlns="http://www.w3.org/2000/svg">
  <title>Not Ontario icon</title>
  <desc>Morphed trillium badge on a black background</desc>

  <rect width="100" height="100" fill="#1a1a1a" rx="6"/>

  <g transform="translate(50,50)">
    <circle fill="#fff" cx="0" cy="0" r="42"/>
    <path fill="#1a1a1a" d="M0,-36 C6,-26 18,-20 14,-9 C10,2 2,6 0,13 C-2,6 -10,2 -14,-9 C-18,-20 -6,-26 0,-36Z"/>
    <path fill="#1a1a1a" d="M0,-36 C6,-26 18,-20 14,-9 C10,2 2,6 0,13 C-2,6 -10,2 -14,-9 C-18,-20 -6,-26 0,-36Z" transform="rotate(120)"/>
    <path fill="#1a1a1a" d="M0,-36 C6,-26 18,-20 14,-9 C10,2 2,6 0,13 C-2,6 -10,2 -14,-9 C-18,-20 -6,-26 0,-36Z" transform="rotate(240)"/>
  </g>
</svg>
